<?xml version="1.0" encoding="UTF-8" standalone="no"?>
<!DOCTYPE svg PUBLIC "-//W3C//DTD SVG 1.1//EN" "http://www.w3.org/Graphics/SVG/1.1/DTD/svg11.dtd">
<!-- Created with Vectornator (http://vectornator.io/) -->
<svg height="266.0pt" stroke-miterlimit="10" style="fill-rule:nonzero;clip-rule:evenodd;stroke-linecap:round;stroke-linejoin:round;" version="1.1" viewBox="0 0 266 266" width="266.0pt" xml:space="preserve" xmlns="http://www.w3.org/2000/svg" xmlns:xlink="http://www.w3.org/1999/xlink">
<defs/>
<g id="无标题">
<g opacity="1">
<path d="M153 0C126.49 0 105 21.4903 105 48C105 60.584 109.952 71.9399 117.875 80.5C126.643 71.0273 139.074 65 153 65C161.482 65 169.335 67.3897 176.25 71.25C172.39 64.3354 170 56.4817 170 48C170 34.0744 176.027 21.643 185.5 12.875C176.94 4.95174 165.584 0 153 0ZM185.5 12.875C194.973 21.643 201 34.0744 201 48C201 56.4817 198.61 64.3354 194.75 71.25C201.665 67.3897 209.518 65 218 65C231.926 65 244.357 71.0273 253.125 80.5C261.048 71.9399 266 60.584 266 48C266 21.4903 244.51 0 218 0C205.416 0 194.06 4.95174 185.5 12.875ZM253.125 80.5C244.357 89.9727 231.926 96 218 96C209.518 96 201.665 93.6104 194.75 89.75C198.61 96.6646 201 104.518 201 113C201 126.926 194.973 139.357 185.5 148.125C194.06 156.048 205.416 161 218 161C244.51 161 266 139.51 266 113C266 100.416 261.048 89.0601 253.125 80.5ZM185.5 148.125C176.027 139.357 170 126.926 170 113C170 104.518 172.39 96.6646 176.25 89.75C169.335 93.6103 161.482 96 153 96C139.074 96 126.643 89.9727 117.875 80.5C109.952 89.0601 105 100.416 105 113C105 139.51 126.49 161 153 161C165.584 161 176.94 156.048 185.5 148.125ZM185.5 77.875C184.587 78.7197 183.72 79.5874 182.875 80.5C183.72 81.4126 184.587 82.2803 185.5 83.125C186.413 82.2803 187.28 81.4126 188.125 80.5C187.28 79.5874 186.413 78.7197 185.5 77.875Z" fill="#cb7676" fill-rule="nonzero" opacity="1" stroke="none"/>
<path d="M218 48L218 113L266 113L266 48L218 48Z" fill="#4b9978" fill-rule="nonzero" opacity="1" stroke="none"/>
<path d="M0 48L0 113L153 113L153 48L0 48Z" fill="#4b9978" fill-rule="nonzero" opacity="1" stroke="none"/>
<path d="M108.463 144.426C108.012 138.792 105.899 134.397 102.124 131.242C98.4052 128.086 92.7426 126.509 85.1361 126.509C80.2905 126.509 76.3182 127.1 73.2192 128.284C70.1766 129.411 67.9228 130.96 66.4579 132.932C64.9929 134.904 64.2323 137.158 64.1759 139.693C64.0632 141.778 64.4295 143.666 65.2747 145.356C66.1762 146.99 67.5848 148.483 69.5005 149.835C71.4162 151.131 73.8672 152.315 76.8535 153.385C79.8397 154.456 83.3894 155.414 87.5026 156.259L101.701 159.301C111.28 161.33 119.478 164.006 126.296 167.33C133.113 170.655 138.692 174.571 143.03 179.078C147.369 183.529 150.552 188.544 152.58 194.122C154.665 199.7 155.736 205.785 155.792 212.378C155.736 223.759 152.89 233.394 147.256 241.283C141.621 249.171 133.564 255.171 123.084 259.285C112.66 263.398 100.124 265.454 85.4742 265.454C70.4302 265.454 57.3019 263.229 46.0893 258.778C34.9331 254.326 26.2561 247.48 20.0582 238.24C13.9166 228.943 10.8177 217.054 10.7613 202.574L55.3862 202.574C55.6679 207.87 56.992 212.321 59.3585 215.928C61.725 219.534 65.0493 222.266 69.3315 224.126C73.67 225.985 78.8255 226.915 84.798 226.915C89.8127 226.915 94.0104 226.295 97.391 225.055C100.772 223.816 103.335 222.097 105.082 219.9C106.829 217.702 107.73 215.195 107.787 212.378C107.73 209.73 106.857 207.419 105.167 205.447C103.533 203.419 100.828 201.616 97.053 200.038C93.2779 198.404 88.1787 196.883 81.7554 195.474L64.514 191.756C49.1883 188.431 37.1024 182.881 28.2563 175.106C19.4666 167.274 15.0999 156.597 15.1562 143.074C15.0999 132.087 18.0298 122.48 23.946 114.254C29.9185 105.971 38.1729 99.5197 48.7094 94.8995C59.3021 90.2793 71.4444 87.9691 85.1361 87.9691C99.11 87.9691 111.195 90.3074 121.394 94.984C131.592 99.6606 139.452 106.253 144.974 114.761C150.552 123.213 153.369 133.101 153.426 144.426L108.463 144.426Z" fill="#83d0da" fill-rule="nonzero" opacity="1" stroke="none"/>
<path d="M153 0L153 48L218 48L218 0L153 0Z" fill="#e6cc78" fill-rule="nonzero" opacity="1" stroke="none"/>
<path d="M153 113L153 266L218 266L218 113L153 113Z" fill="#e6cc78" fill-rule="nonzero" opacity="1" stroke="none"/>
</g>
</g>
</svg>
